<?xml version="1.0" encoding="utf-8"?>
<!-- Generator: Adobe Illustrator 17.0.0, SVG Export Plug-In . SVG Version: 6.00 Build 0)  -->
<!DOCTYPE svg PUBLIC "-//W3C//DTD SVG 1.1//EN" "http://www.w3.org/Graphics/SVG/1.1/DTD/svg11.dtd">
<svg version="1.1" id="Text" xmlns="http://www.w3.org/2000/svg" xmlns:xlink="http://www.w3.org/1999/xlink" x="0px" y="0px"
	 width="1656px" height="621px" viewBox="0 0 1656 621" enable-background="new 0 0 1656 621" xml:space="preserve">
<g>
	<path d="M490.5,464.602c-9.572,4.102-18.851,9.521-27.832,16.26c-8.986,6.738-18.068,14.113-27.246,22.119
		c-9.183,8.011-18.704,16.457-28.564,25.342c-9.865,8.89-20.508,17.679-31.934,26.367c-11.426,8.693-23.877,16.992-37.354,24.902
		s-28.372,14.841-44.678,20.801c-16.31,5.955-34.277,10.693-53.906,14.209s-41.359,5.273-65.186,5.273
		c-26.367,0-50.148-5.324-71.338-15.967c-21.194-10.647-39.308-25.003-54.346-43.066c-15.042-18.063-26.614-39.061-34.717-62.988
		c-8.107-23.923-12.158-49.072-12.158-75.439c0-17.967,1.95-37.253,5.859-57.861c3.905-20.604,9.521-41.602,16.846-62.988
		s16.26-42.723,26.807-64.014c10.547-21.286,22.508-41.698,35.889-61.23c13.376-19.528,28.075-37.646,44.092-54.346
		c16.013-16.699,33.105-31.247,51.27-43.652c18.164-12.401,37.303-22.119,57.422-29.15c20.114-7.031,41.016-10.547,62.695-10.547
		c14.063,0,28.317,2.49,42.773,7.471c14.452,4.98,27.438,12.648,38.965,22.998c11.522,10.354,20.947,23.438,28.271,39.258
		s10.986,34.474,10.986,55.957c0,14.456-2.298,29.054-6.885,43.799c-4.591,14.749-10.89,28.908-18.896,42.48
		c-8.011,13.577-17.432,26.321-28.271,38.232c-10.84,11.916-22.513,22.22-35.01,30.908c-12.501,8.693-25.488,15.578-38.965,20.654
		c-13.477,5.081-26.953,7.617-40.43,7.617c-17.775,0-31.055-2.39-39.844-7.178c-8.789-4.783-13.184-11.668-13.184-20.654
		c0-1.561-0.05-3.415-0.146-5.566c-0.101-2.147-0.146-4.395-0.146-6.738c0-3.516,0.192-7.178,0.586-10.986
		c0.389-3.809,1.172-7.274,2.344-10.4c1.172-3.122,2.879-5.663,5.127-7.617c2.243-1.95,5.319-2.93,9.229-2.93
		c2.344,0,4.395,0.343,6.152,1.025c1.758,0.687,3.708,1.419,5.859,2.197c2.147,0.783,4.733,1.515,7.764,2.197
		c3.026,0.687,6.885,1.025,11.572,1.025c12.497,0,25.145-2.733,37.939-8.203c12.79-5.466,24.316-13.184,34.57-23.145
		s18.649-21.826,25.195-35.596c6.542-13.77,9.814-28.954,9.814-45.557c0-8.789-1.172-17.139-3.516-25.049
		s-6.152-14.841-11.426-20.801c-5.273-5.956-12.062-10.739-20.361-14.355c-8.304-3.612-18.411-5.42-30.322-5.42
		c-14.063,0-27.786,3.076-41.162,9.229c-13.38,6.152-26.221,14.502-38.525,25.049s-23.978,23.048-35.01,37.5
		c-11.037,14.456-21.24,29.933-30.615,46.436c-9.375,16.507-17.825,33.691-25.342,51.563c-7.521,17.871-13.916,35.696-19.189,53.467
		c-5.273,17.775-9.329,35.01-12.158,51.709c-2.833,16.699-4.248,32.08-4.248,46.143c0,20.119,2.49,37.646,7.471,52.588
		s12.058,27.393,21.24,37.354c9.178,9.961,20.407,17.386,33.691,22.266c13.28,4.885,28.221,7.324,44.824,7.324
		c20.7,0,39.99-2.586,57.861-7.764c17.871-5.173,34.909-11.961,51.123-20.361c16.209-8.396,31.883-17.871,47.021-28.418
		c15.134-10.547,30.272-21.14,45.41-31.787c15.134-10.643,30.565-20.801,46.289-30.469c15.72-9.668,32.373-17.82,49.951-24.463
		V464.602z"/>
	<path d="M610.617,501.223c-7.031,6.445-15.774,13.33-26.221,20.654c-10.451,7.324-21.73,14.063-33.838,20.215
		c-12.112,6.152-24.463,11.279-37.061,15.381s-24.563,6.152-35.889,6.152c-10.158,0-18.704-1.414-25.635-4.248
		c-6.935-2.829-12.552-6.784-16.846-11.865c-4.298-5.076-7.375-11.279-9.229-18.604c-1.858-7.324-2.783-15.381-2.783-24.17
		c0-12.305,1.415-26.609,4.248-42.92c2.829-16.306,6.299-33.201,10.4-50.684c4.102-17.478,8.446-34.909,13.037-52.295
		c4.587-17.381,8.643-33.398,12.158-48.047c1.364-5.077,4.102-9.421,8.203-13.037c4.102-3.612,8.739-6.542,13.916-8.789
		c5.173-2.243,10.547-3.905,16.113-4.98c5.566-1.071,10.593-1.611,15.088-1.611c8.203,0,13.77,1.515,16.699,4.541
		c2.93,3.03,4.395,7.082,4.395,12.158c0,4.298-0.979,10.501-2.93,18.604c-1.955,8.107-4.395,17.285-7.324,27.539
		s-6.056,21.291-9.375,33.105c-3.323,11.819-6.445,23.635-9.375,35.449c-2.93,11.819-5.374,23.342-7.324,34.57
		c-1.955,11.233-2.93,21.341-2.93,30.322c0,8.789,0.975,15.774,2.93,20.947c1.95,5.178,5.956,7.764,12.012,7.764
		c7.031,0,14.841-2.439,23.438-7.324c8.592-4.88,17.285-10.789,26.074-17.725c8.789-6.931,17.381-14.108,25.781-21.533
		c8.396-7.42,15.82-13.77,22.266-19.043V501.223z M479.66,200.051c0-4.491,0.975-9.567,2.93-15.234
		c1.95-5.663,5.127-10.986,9.521-15.967s10.254-9.178,17.578-12.598c7.324-3.415,16.452-5.127,27.393-5.127
		c6.834,0,13.28,0.783,19.336,2.344c6.052,1.565,11.325,3.955,15.82,7.178c4.491,3.223,8.057,7.471,10.693,12.744
		s3.955,11.526,3.955,18.75c0,6.642-1.076,13.087-3.223,19.336c-2.151,6.253-5.566,11.819-10.254,16.699
		c-4.688,4.884-10.597,8.839-17.725,11.865c-7.132,3.03-15.674,4.541-25.635,4.541c-17.189,0-29.883-4.051-38.086-12.158
		C483.762,224.321,479.66,213.527,479.66,200.051z"/>
	<path d="M589.816,502.395c0-8.592,0.485-18.604,1.465-30.029c0.975-11.426,2.293-23.483,3.955-36.182
		c1.657-12.693,3.612-25.635,5.859-38.818c2.243-13.184,4.637-25.73,7.178-37.646c2.536-11.911,5.077-22.852,7.617-32.813
		c2.536-9.961,5.077-18.164,7.617-24.609c1.561-4.294,3.122-7.713,4.688-10.254c1.561-2.536,3.369-4.541,5.42-6.006
		s4.587-2.44,7.617-2.93c3.026-0.485,6.784-0.732,11.279-0.732c5.077,0,9.032,0.247,11.865,0.732c2.829,0.49,4.93,1.662,6.299,3.516
		c1.364,1.858,2.197,4.541,2.49,8.057s0.439,8.304,0.439,14.355c0,7.228,0,15.967,0,26.221s0.192,20.361,0.586,30.322h3.223
		c3.905-7.81,8.299-16.553,13.184-26.221c4.88-9.668,10.547-18.699,16.992-27.1c6.445-8.396,13.77-15.477,21.973-21.24
		c8.203-5.759,17.674-8.643,28.418-8.643c3.708,0,7.324,0.636,10.84,1.904c3.516,1.272,6.592,3.076,9.229,5.42
		s4.733,5.228,6.299,8.643c1.561,3.419,2.344,7.278,2.344,11.572c0,3.323-0.49,7.96-1.465,13.916
		c-0.979,5.96-2.051,12.209-3.223,18.75c-1.172,6.546-2.248,12.891-3.223,19.043c-0.979,6.152-1.465,11.279-1.465,15.381
		c0,7.031,0.682,12.891,2.051,17.578c1.364,4.688,3.172,8.45,5.42,11.279c2.243,2.834,4.784,4.834,7.617,6.006
		c2.829,1.172,5.809,1.758,8.936,1.758c8.789,0,17.871-1.95,27.246-5.859c9.375-3.904,17.968-8.299,25.781-13.184
		c9.179-5.662,18.164-12.107,26.953-19.336l-4.395,68.555c-5.081,3.323-10.84,7.031-17.285,11.133s-13.33,7.961-20.654,11.572
		c-7.324,3.616-14.941,6.643-22.852,9.082c-7.91,2.444-15.967,3.662-24.17,3.662c-14.648,0-26.468-2.976-35.449-8.936
		c-8.986-5.955-16.113-13.77-21.387-23.438s-9.183-20.508-11.719-32.52c-2.541-12.012-4.591-24.17-6.152-36.475h-4.688
		l-52.441,146.191c-2.737,7.617-5.324,13.916-7.764,18.896c-2.444,4.98-4.935,9.036-7.471,12.158
		c-2.541,3.127-5.273,5.324-8.203,6.592c-2.93,1.272-6.152,1.904-9.668,1.904c-8.011,0-14.456-1.707-19.336-5.127
		c-4.884-3.415-8.643-8.006-11.279-13.77c-2.637-5.759-4.395-12.305-5.273-19.629S589.816,510.209,589.816,502.395z"/>
	<path d="M933.469,563.625c-17.972,0-33.741-3.318-47.314-9.961c-13.577-6.638-24.952-15.527-34.131-26.66
		c-9.183-11.133-16.113-24.023-20.801-38.672s-7.031-29.883-7.031-45.703c0-11.325,1.172-23.145,3.516-35.449
		s5.809-24.362,10.4-36.182c4.587-11.814,10.254-23.094,16.992-33.838c6.738-10.739,14.548-20.165,23.438-28.271
		c8.886-8.103,18.796-14.548,29.736-19.336c10.937-4.784,22.948-7.178,36.035-7.178c11.133,0,21.434,1.712,30.908,5.127
		c9.471,3.419,17.578,8.157,24.316,14.209c6.738,6.056,12.012,13.234,15.82,21.533c3.809,8.304,5.713,17.239,5.713,26.807
		c0,6.643-0.879,13.184-2.637,19.629s-4.348,12.259-7.764,17.432c-3.42,5.178-7.57,9.329-12.451,12.451
		c-4.885,3.127-10.354,4.688-16.406,4.688c-9.182,0-15.188-2.439-18.018-7.324c-2.833-4.88-4.248-11.618-4.248-20.215
		c0-3.516,0.146-7.224,0.439-11.133c0.293-3.904,0.439-7.42,0.439-10.547c0-4.688-0.489-8.592-1.465-11.719
		c-0.979-3.122-3.126-4.688-6.445-4.688c-8.011,0-14.845,1.904-20.508,5.713c-5.667,3.809-10.501,8.789-14.502,14.941
		c-4.005,6.152-7.178,13.088-9.521,20.801c-2.344,7.718-4.202,15.381-5.566,22.998c-1.368,7.617-2.247,14.896-2.637,21.826
		c-0.394,6.936-0.586,12.744-0.586,17.432c0,7.031,0.632,14.355,1.904,21.973c1.269,7.617,3.662,14.603,7.178,20.947
		c3.516,6.35,8.3,11.623,14.355,15.82c6.052,4.202,13.866,6.299,23.438,6.299c9.375,0,19.725-2.879,31.055-8.643
		c11.326-5.759,22.705-13.037,34.131-21.826s22.313-18.457,32.666-29.004c10.35-10.547,19.236-20.508,26.66-29.883l20.215,33.984
		c-14.648,20.901-30.469,39.551-47.461,55.957c-7.229,7.031-15.088,13.87-23.584,20.508c-8.496,6.643-17.385,12.552-26.66,17.725
		c-9.279,5.178-18.947,9.375-29.004,12.598C954.022,562.014,943.819,563.625,933.469,563.625z"/>
	<path d="M1123.898,563.625c-10.547,0-20.361-4.637-29.443-13.916c-9.082-9.274-16.992-21.726-23.73-37.354
		c-6.738-15.623-12.012-33.737-15.82-54.346c-3.809-20.604-5.713-42.233-5.713-64.893c0-17.381,1.268-36.277,3.809-56.689
		c2.536-20.407,6.248-41.455,11.133-63.135c4.88-21.68,10.693-43.456,17.432-65.332c6.738-21.872,14.355-42.87,22.852-62.988
		c8.496-20.114,17.725-38.915,27.686-56.396c9.961-17.478,20.407-32.712,31.348-45.703c10.936-12.987,22.361-23.19,34.277-30.615
		c11.911-7.42,24.023-11.133,36.328-11.133c8.396,0,15.33,1.904,20.801,5.713c5.466,3.809,9.764,8.839,12.891,15.088
		c3.122,6.253,5.319,13.33,6.592,21.24c1.268,7.91,1.904,15.967,1.904,24.17c0,18.361-2.102,37.061-6.299,56.104
		c-4.202,19.043-9.865,38.187-16.992,57.422c-7.132,19.24-15.381,38.525-24.756,57.861s-19.144,38.525-29.297,57.568
		c-10.158,19.043-20.361,37.793-30.615,56.25s-19.876,36.475-28.857,54.053c-0.979,1.955-2.005,4.495-3.076,7.617
		c-1.076,3.127-2.102,6.496-3.076,10.107c-0.979,3.616-1.955,7.471-2.93,11.572c-0.979,4.102-1.758,8.107-2.344,12.012v4.102
		c0,5.081,0.535,10.012,1.611,14.795c1.071,4.788,2.39,9.082,3.955,12.891c1.561,3.809,3.223,6.839,4.98,9.082
		c1.758,2.248,3.415,3.369,4.98,3.369c3.708,0,7.956-0.778,12.744-2.344c4.783-1.561,9.86-3.662,15.234-6.299
		c5.369-2.637,10.886-5.662,16.553-9.082c5.662-3.415,11.133-6.885,16.406-10.4c12.305-8.203,25.195-17.674,38.672-28.418
		l24.023,61.523c-17.386,12.502-34.57,23.635-51.563,33.398c-7.425,4.102-15.088,8.157-22.998,12.158
		c-7.91,4.006-15.871,7.571-23.877,10.693c-8.011,3.127-15.82,5.617-23.438,7.471C1137.668,562.7,1130.536,563.625,1123.898,563.625
		z M1124.191,329.25c8.789-15.624,18.113-33.202,27.979-52.734c9.86-19.528,19.189-39.647,27.979-60.352
		c8.789-20.7,16.406-41.354,22.852-61.963c6.445-20.604,10.547-39.793,12.305-57.568c0-5.663-0.146-10.497-0.439-14.502
		c-0.293-4.001-1.223-6.006-2.783-6.006c-5.667,0-11.77,3.662-18.311,10.986c-6.546,7.324-13.088,17.239-19.629,29.736
		c-6.546,12.501-12.795,27.054-18.75,43.652c-5.96,16.603-11.279,34.277-15.967,53.027s-8.4,38.04-11.133,57.861
		C1125.556,291.214,1124.191,310.5,1124.191,329.25z"/>
	<path d="M1326.047,563.625c-18.361,0-34.424-3.318-48.193-9.961c-13.77-6.638-25.246-15.573-34.424-26.807
		c-9.183-11.229-16.067-24.216-20.654-38.965c-4.592-14.744-6.885-30.222-6.885-46.436c0-10.936,1.071-22.508,3.223-34.717
		c2.146-12.204,5.42-24.17,9.814-35.889s9.91-22.897,16.553-33.545c6.638-10.643,14.401-20.018,23.291-28.125
		c8.885-8.103,18.846-14.548,29.883-19.336c11.032-4.784,23.291-7.178,36.768-7.178c10.936,0,21.094,1.758,30.469,5.273
		s17.527,8.45,24.463,14.795c6.931,6.349,12.351,14.017,16.26,22.998c3.904,8.986,5.859,19.043,5.859,30.176
		c0,12.112-2.98,24.221-8.936,36.328c-5.96,12.112-14.209,23.538-24.756,34.277c-10.547,10.744-23.099,20.315-37.646,28.711
		c-14.553,8.4-30.322,14.941-47.314,19.629c2.93,5.273,5.809,9.668,8.643,13.184c2.829,3.516,5.713,6.253,8.643,8.203
		c2.93,1.955,6.006,3.323,9.229,4.102c3.223,0.783,6.688,1.172,10.4,1.172c11.719,0,24.069-2.344,37.061-7.031
		c12.986-4.688,25.635-10.547,37.939-17.578s23.923-14.694,34.863-22.998c10.936-8.299,18.802-12.449,46.243-37.602l41.429,29.929
		c-17.189,17.775-57.496,56.845-76.832,70.514c-8.4,5.859-17.432,11.623-27.1,17.285c-9.668,5.667-19.826,10.693-30.469,15.088
		c-10.647,4.395-21.68,7.91-33.105,10.547S1337.766,563.625,1326.047,563.625z M1287.082,425.93c7.031,0,14.694-1.804,22.998-5.42
		c8.299-3.611,16.013-8.249,23.145-13.916c7.127-5.662,13.133-11.814,18.018-18.457c4.88-6.638,7.324-13.083,7.324-19.336
		c0-8.789-1.611-16.013-4.834-21.68c-3.223-5.662-7.178-8.496-11.865-8.496c-8.4,0-15.578,1.565-21.533,4.688
		c-5.96,3.127-10.94,7.178-14.941,12.158c-4.006,4.98-7.229,10.647-9.668,16.992c-2.444,6.35-4.299,12.744-5.566,19.189
		c-1.272,6.445-2.102,12.698-2.49,18.75C1287.274,416.459,1287.082,421.636,1287.082,425.93z"/>
	<path d="M1618.119,526.876c-28.25,40.25-58.677,39.386-74.689,39.386c-11.526,0-22.266-1.076-32.227-3.223
		s-18.704-5.516-26.221-10.107c-7.521-4.587-13.623-10.593-18.311-18.018c-4.688-7.42-7.521-16.406-8.496-26.953
		c-2.737,0.586-5.42,0.979-8.057,1.172c-2.637,0.197-5.228,0.293-7.764,0.293c-3.127,0-6.057-0.096-8.789-0.293
		c-2.737-0.192-5.081-0.925-7.031-2.197c-1.955-1.268-3.516-3.318-4.688-6.152c-1.172-2.829-1.758-6.885-1.758-12.158
		c0-4.688,1.172-9.031,3.516-13.037c2.344-4.001,5.076-7.566,8.203-10.693c3.122-3.122,6.248-5.859,9.375-8.203
		c3.122-2.344,5.466-4.197,7.031-5.566c10.936-9.375,19.821-17.185,26.66-23.438c6.834-6.248,12.693-11.961,17.578-17.139
		c4.88-5.173,9.324-10.4,13.33-15.674c4.001-5.273,8.738-11.521,14.209-18.75c5.466-7.224,12.107-16.063,19.922-26.514
		c7.81-10.446,17.967-23.483,30.469-39.111c2.536-3.516,5.369-6.931,8.496-10.254c3.122-3.319,6.592-6.299,10.4-8.936
		s8.006-4.784,12.598-6.445c4.587-1.657,9.714-2.49,15.381-2.49c9.375,0,16.599,1.025,21.68,3.076
		c5.076,2.051,8.789,4.541,11.133,7.471s3.708,6.006,4.102,9.229c0.389,3.223,0.586,6.006,0.586,8.35
		c0,4.688-1.858,9.865-5.566,15.527c-3.713,5.667-7.814,11.133-12.305,16.406c-4.495,5.273-8.743,10.107-12.744,14.502
		c-4.006,4.395-6.299,7.668-6.885,9.814c0,6.057,0.439,11.572,1.318,16.553s2.051,9.865,3.516,14.648
		c1.465,4.788,2.976,9.865,4.541,15.234c1.561,5.374,3.076,11.572,4.541,18.604s2.637,15.139,3.516,24.316
		C1635.568,465.288,1636.284,501.25,1618.119,526.876 M1485.715,488.625c2.344,0,4.93,1.465,7.764,4.395
		c2.829,2.93,6.102,6.152,9.814,9.668c3.708,3.516,8.006,6.738,12.891,9.668c4.88,2.93,10.446,4.395,16.699,4.395
		c7.617,0,13.916-1.268,18.896-3.809c4.98-2.536,8.936-5.905,11.865-10.107c2.93-4.197,4.98-9.082,6.152-14.648
		s1.758-11.375,1.758-17.432c0-5.273-0.344-10.643-1.025-16.113c-0.687-5.466-1.565-10.693-2.637-15.674
		c-1.076-4.98-2.248-9.668-3.516-14.063c-1.272-4.395-2.395-8.152-3.369-11.279L1485.715,488.625z"/>
</g>
</svg>
